# xmcd CD database file
#
# Track frame offsets:
#	150
#	22065
#	42005
#	63415
#	84390
#	106673
#	130060
#	150552
#	171920
#	192279
#	214490
#	234287
#	255831
#	275151
#	295947
#	314913
#	337248
#
# Disc length: 4763 seconds
#
# Revision: 3
# Processed by: cddbd v1.5.2PL0 Copyright (c) Steve Scherf et al.
# Submitted via: CDex 1.70beta2
#
DISCID=f9129911
DTITLE=Lorentz, Iny - Die Löwin
DYEAR=2006
DGENRE=Hörbuch
TTITLE0=50 Die Löwin
TTITLE1=51 Die Löwin
TTITLE2=52 Die Löwin
TTITLE3=53 Die Löwin
TTITLE4=54 Die Löwin
TTITLE5=55 Die Löwin
TTITLE6=56 Die Löwin
TTITLE7=57 Die Löwin
TTITLE8=58 Die Löwin
TTITLE9=59 Die Löwin
TTITLE10=60 Die Löwin
TTITLE11=61 Die Löwin
TTITLE12=62 Die Löwin
TTITLE13=63 Die Löwin
TTITLE14=64 Die Löwin
TTITLE15=65 Die Löwin
TTITLE16=66 Die Löwin
EXTD=YEAR: 2006
EXTT0=
EXTT1=
EXTT2=
EXTT3=
EXTT4=
EXTT5=
EXTT6=
EXTT7=
EXTT8=
EXTT9=
EXTT10=
EXTT11=
EXTT12=
EXTT13=
EXTT14=
EXTT15=
EXTT16=
PLAYORDER=
